<svg xmlns="http://www.w3.org/2000/svg" xmlns:xlink="http://www.w3.org/1999/xlink" preserveAspectRatio="xMidYMid" width="512" height="512" viewBox="0 0 512 512">
  <defs>
	<style>
	  .cls-1,
	  .cls-2 { fill-rule: evenodd; }
	  .cls-1 { fill: #0076a3; }
	  .cls-2 { fill: #00aeef; }
	</style>
  </defs>
  
  <g>
	<path d="
		M	474, 398
		C	474, 398
			426, 325
			363, 315
		C	300, 306
			228, 340
			228, 340
		C	228, 340
			160, 373
			117, 366
		C	 75, 360
			  0, 325
			  0, 325
		C	  0, 325
			 50, 398
			111, 407
		C	172, 417
			236, 390
			236, 390
		C	236, 390
			312, 349
			359, 357
		C	407, 364
			474, 398
			474, 398 Z"
		transform="translate(19 51.36)"
		class="cls-1"/>

	<path d="
		M	474, 241
		C	474, 241
			426, 168
			363, 159
		C	300, 149
			228, 183
			228, 183
		C	228, 183
			160, 216
			117, 209
		C	 75, 203
			  0, 168
			  0, 168
		C	  0, 168
			 50, 241
			111, 251
		C	172, 260
			236, 233
			236, 233
		C	236, 233
			312, 193
			359, 200
		C	407, 207
			474, 241
			474, 241 Z"
		transform="translate(19 51.36)"
		class="cls-2"/>

	<path d="
		M363,2.022
		C	426, 12
			474, 84
			474, 84
		C	474, 84
			407, 49
			359, 43
		C	288, 34
			208, 108
			111, 94
		C	 50, 85
			  0, 12
			  0, 12
		C	  0, 12
			 75, 49
			117, 53
		C	192, 60 267, -13.011
			363, 2 Z"
		transform="translate(19 51.36)"
		class="cls-1"/>

  </g>
</svg>
