<svg xmlns="http://www.w3.org/2000/svg" xmlns:xlink="http://www.w3.org/1999/xlink" preserveAspectRatio="xMidYMid" width="512" height="512" viewBox="0 0 512 512">
  <defs>
	<style>
	  .cls-1,
	  .cls-2 { fill-rule: evenodd; }
	  .cls-1 { fill: #0076a3; }
	  .cls-2 { fill: #00aeef; }
	</style>
  </defs>

  <g>
	<path d="
		M	375, 217 
		C	375, 217
			352, 212
			323, 228 
		C	253, 264
			203, 345
			143, 344 
		C	 63, 344
			  0, 251
			  0, 251
		C	  0, 251
			 52, 364
			143, 366 
		C	211, 366
			280, 275
			318, 243 
		C	345, 220
			375, 217
			375, 217 Z"
		transform="translate(18 73)"
		class="cls-1"/>
		
	<path d="
		M	 98, 295 
		C	181, 349
			299, 179
			388, 194 
		C	466, 207
			475, 338
			475, 338 
		C	475, 338
			478, 143
			342, 147 
		C	254, 150
			210, 219
			141, 194 
		C	 59, 166
			 65,   0
			 65,   0 
		C	 65,   0
			-54, 195
			 98, 295 Z"
		transform="translate(18 73)"
		class="cls-2"/>
		
	<path d="
		M	469, 255 
		C	469, 255
			474, 150
			389, 118 
		C	309,  89
			243, 152
			174, 154 
		C	137, 154
			111, 121
			111, 121 
		C	111, 121
			127, 168
			194, 168 
		C	255, 167
			307, 120
			376, 137 
		C	453, 153
			469, 255
			469, 255 Z"
		transform="translate(18 73)"
		class="cls-1"/>
  </g>
</svg>
