<svg xmlns="http://www.w3.org/2000/svg" xmlns:xlink="http://www.w3.org/1999/xlink" preserveAspectRatio="xMidYMid" width="512" height="512" viewBox="0 0 512 512">
  <defs>
	<style>
	  .cls-1 {
		fill: #0076a3;
	  }

	  .cls-1, .cls-2 {
		fill-rule: evenodd;
	  }

	  .cls-2 {
		fill: #00aeef;
	  }
	</style>
  </defs>
  <g id="LogoIcon">
	<path d="
		M474.014, 397.582
		C474.014, 397.582 426.462, 325.102 363.027, 315.402
		C299.592, 305.701 227.917, 339.963 227.917, 339.963
		C227.917, 339.963 159.623, 372.584 117.449, 366.134
		C075.275, 359.685 -00.003, 325.096 -00.003, 325.096
		C-00.003, 325.096 049.641, 397.896 110.984, 407.277
		C172.328, 416.657 236.306, 389.927 236.306, 389.927
		C236.306, 389.927 311.957, 349.369 359.359, 356.617
		C406.761, 363.866 474.014, 397.582 474.014, 397.582 Z"
		transform="translate(19 51.36)"
		class="cls-1"/>
		
	<path d="
		M474.014, 240.893
		C474.014, 240.893 426.462, 168.412 363.027, 158.712
		C299.592, 149.012 227.917, 183.273 227.917, 183.273
		C227.917, 183.273 159.623, 215.894 117.449, 209.445
		C075.275, 202.995 -00.003, 168.406 -00.003, 168.406
		C-00.003, 168.406 049.641, 241.206 110.984, 250.586
		C172.328, 259.967 236.306, 233.237 236.306, 233.237
		C236.306, 233.237 311.957, 192.679 359.359, 199.927
		C406.761, 207.176 474.014, 240.893 474.014, 240.893 Z"
		transform="translate(19 51.36)"
		class="cls-2"/>
		
	<path d="
		M363.027,2.022
		C426.428, 011.940 474.014, 084.203 474.014, 084.203
		C474.014, 084.203 406.914, 049.397 359.359, 043.238
		C287.957, 033.989 208.328, 107.944 110.984, 093.896
		C049.564, 085.033 -00.003, 011.716 -00.003, 011.716
		C-00.003, 011.716 074.980, 048.680 117.449, 052.755
		C191.623, 059.871 266.926, -13.011 363.027, 002.022 Z"
		transform="translate(19 51.36)"
		class="cls-1"/>
  </g>
  <g id="MenuIcon">
	<path d="
		M375.631, 217.488 
		C375.631, 217.488 352.133, 212.919 323.479, 228.046 
		C253.864, 264.800 203.476, 345.334 143.064, 344.885 
		C063.663, 344.294 -00.000, 251.273 -00.000, 251.273
		C-00.000, 251.273 052.332, 364.981 143.064, 366.000 
		C211.872, 366.772 280.642, 275.506 318.546, 243.531 
		C345.739, 220.590 375.631, 217.488 375.631, 217.488 Z"
		transform="translate(18.5 73)"
		class="cls-1"/>
		
	<path d="
		M098.000, 295.000 
		C181.086, 349.299 299.035, 179.168 388.316, 194.262 
		C466.378, 207.459 475.000, 338.550 475.000, 338.550 
		C475.000, 338.550 478.617, 143.431 342.507, 147.808 
		C254.955, 150.623 210.971, 219.378 141.654, 194.965 
		C059.500, 166.031 065.542, -00.000 065.542, -00.000 
		C065.542, -00.000 -54.864, 195.098 098.000, 295.000 Z"
		transform="translate(18.5 73)"
		class="cls-2"/>
		
	<path d="
		M469.362, 255.496 
		C469.362, 255.496 474.547, 150.271 389.021, 118.950 
		C309.164, 089.705 243.981, 152.735 174.777, 154.142 
		C137.648, 154.898 111.350, 121.062 111.350, 121.062 
		C111.350, 121.062 127.383, 168.654 194.510, 168.219 
		C255.628, 167.823 307.409, 120.270 376.335, 137.954 
		C453.837, 153.574 469.362, 255.496 469.362, 255.496 Z"
		transform="translate(18.5 73)"
		class="cls-1"/>
  </g>
</svg>
