<svg xmlns="http://www.w3.org/2000/svg" xmlns:xlink="http://www.w3.org/1999/xlink" preserveAspectRatio="xMidYMid" width="500" height="500" viewBox="0 0 500 500">
  <defs>
    <style>
      .cls-1 {
        fill: #0076a3;
      }

      .cls-1, .cls-2 {
        fill-rule: evenodd;
      }

      .cls-2 {
        fill: #00aeef;
      }
    </style>
  </defs>
  <g>
    <path d="
		M	0, 252
		C 	0, 252 
			71, 345 
			146, 345
		C 	206, 345 
			239, 298 
			303, 250
		C 	350, 215 
			391, 217 
			391, 217
		C 	391, 217 
			340, 231 
			309, 264
		C 	230, 347 
			180, 367 
			145, 366
		C 	58, 365 
			0, 252 
			0, 252 Z"
		transform="translate(0.5 67)"
		class="cls-1"/>
    <path d="M
			67, 0
		C 	67, 0 
			57, 200 
			180, 200
		C 	234, 200 
			288, 148 
			372, 148
		C 	491, 148 
			499, 327 
			499, 327
		C 	499, 327 
			480, 194 
			400, 194
		C 	281, 194 
			180, 369 
			77, 278
		C 	-45, 171 
			67, 0 
			67, 0 Z"
		transform="translate(0.5 67)"
		class="cls-2"/>
    <path d="M
			116, 122
		C 	116, 122 
			145, 154 
			178, 154
		C 	249, 154 
			287, 111 
			363, 111
		C 	490, 111 
			494, 252 
			494, 252
		C 	494, 252 
			471, 134 
			365, 134
		C 	286, 134 
			266, 168 
			200, 168
		C 	138, 168 
			116, 122 
			116, 122 Z"
		transform="translate(0.5 67)"
		class="cls-1"/>
  </g>
</svg>
