<svg xmlns="http://www.w3.org/2000/svg" xmlns:xlink="http://www.w3.org/1999/xlink" preserveAspectRatio="xMidYMid" width="500" height="500" viewBox="0 0 500 500">
  <defs>
    <style>
      .cls-1 {
        fill: #0076a3;
      }

      .cls-1, .cls-2 {
        fill-rule: evenodd;
      }

      .cls-2 {
        fill: #00aeef;
      }
    </style>
  </defs>
  <g>
    <path d="M252.000,499.000 C252.000,499.000 345.000,427.667 345.000,353.000 C345.000,292.667 297.549,260.421 250.000,196.000 C215.375,149.089 217.000,108.000 217.000,108.000 C217.000,108.000 230.693,158.585 264.000,190.000 C347.360,268.624 366.500,319.053 366.000,354.000 C364.751,441.324 252.000,499.000 252.000,499.000 Z" transform="translate(67 0.5)" class="cls-1"/>
    <path d="M-0.000,432.000 C-0.000,432.000 200.000,441.667 200.000,319.000 C200.000,265.167 148.000,210.667 148.000,127.000 C148.000,7.833 327.000,-0.000 327.000,-0.000 C327.000,-0.000 194.000,18.539 194.000,99.000 C194.000,218.001 368.625,318.793 278.000,422.000 C170.662,544.240 -0.000,432.000 -0.000,432.000 Z" transform="translate(67 0.5)" class="cls-2"/>
    <path d="M122.000,383.000 C122.000,383.000 154.000,354.000 154.000,321.000 C154.000,250.000 111.000,211.667 111.000,136.000 C111.000,8.667 252.000,5.000 252.000,5.000 C252.000,5.000 134.000,27.667 134.000,134.000 C134.000,212.803 168.000,233.386 168.000,299.000 C168.000,361.333 122.000,383.000 122.000,383.000 Z" transform="translate(67 0.5)" class="cls-1"/>
  </g>
</svg>
